<svg width="782" height="412" viewBox="0 0 782 412" fill="none" xmlns="http://www.w3.org/2000/svg"><rect width="782" height="412" fill="#FC685E"></rect><rect width="782" height="412" fill="#F6F8F8"></rect><path fill-rule="evenodd" clip-rule="evenodd" d="M391 205.252L520.374 280.571L520.319 280.626H261.681L261.626 280.571L391 205.252ZM391 356L261.627 280.68L261.681 280.626H520.32L520.374 280.68L391 356Z" fill="#3559C7"></path><path fill-rule="evenodd" clip-rule="evenodd" d="M391 130.626L520.374 205.946L520.319 206.001L520.374 206.057L391 281.376L261.627 206.057L261.682 206.001L261.626 205.946L391 130.626Z" fill="#5A78D3"></path><path fill-rule="evenodd" clip-rule="evenodd" d="M391 56.0001L520.374 131.32L520.32 131.374H261.681L261.626 131.32L391 56.0001ZM391.376 206.694L262.002 131.374H520.749L391.376 206.694Z" fill="#AEBCE9"></path></svg>